<svg xmlns="http://www.w3.org/2000/svg" viewBox="0 0 1024 1024" role="img" aria-label="Periodix logo">
<defs>
    <linearGradient id="grad" x1="0%" y1="0%" x2="100%" y2="100%">
    <stop offset="0%" stop-color="#4f46e5"/>
<stop offset="50%" stop-color="#0284c7"/>
<stop offset="100%" stop-color="#059669"/>
    </linearGradient>
    <!-- Create a gradient stroke via a path painted once -->
    <linearGradient id="grad-stroke" x1="0%" y1="0%" x2="100%" y2="100%">
    <stop offset="0%" stop-color="#4f46e5"/>
<stop offset="50%" stop-color="#0284c7"/>
<stop offset="100%" stop-color="#059669"/>
    </linearGradient>
</defs>

<!-- Background transparent -->
<rect width="100%" height="100%" fill="none"/>

<!-- Outer ring using stroke -->
<circle cx="512.0" cy="512.0" r="479.0" fill="none" stroke="url(#grad-stroke)" stroke-width="50.0" stroke-linecap="round"/>


<!-- Letter (glyph path, filled) -->
<g transform="translate(512.0,512.0) scale(0.4469798657718121, -0.4469798657718121) translate(-644.5,-745.0)">
    <path d="M129 0V1490H696Q862 1490 981.0 1430.5Q1100 1371 1163.5 1263.0Q1227 1155 1227 1010Q1227 864 1162.0 756.0Q1097 648 977.0 588.5Q857 529 691 529H282V753H676Q768 753 832.0 785.0Q896 817 930.0 874.5Q964 932 964 1010Q964 1088 930.0 1145.0Q896 1202 832.0 1233.5Q768 1265 676 1265H395V0Z" fill="url(#grad)" />
</g>
</svg>